<?xml version="1.0" encoding="UTF-8" standalone="no"?><svg xmlns="http://www.w3.org/2000/svg" xmlns:xlink="http://www.w3.org/1999/xlink" fill="#640e0e" height="36" preserveAspectRatio="xMidYMid meet" version="1" viewBox="6.0 6.0 36.0 36.0" width="36" zoomAndPan="magnify"><g><path d="M0,0H48V48H0Z" fill="none"/><g id="change1_1"><path d="M32,42H16A10.011,10.011,0,0,1,6,32V16A10.011,10.011,0,0,1,16,6H32A10.011,10.011,0,0,1,42,16V32A10.011,10.011,0,0,1,32,42ZM16,10a6.006,6.006,0,0,0-6,6V32a6.006,6.006,0,0,0,6,6H32a6.006,6.006,0,0,0,6-6V16a6.006,6.006,0,0,0-6-6Z"/></g><g id="change1_2"><path d="M24,32a8,8,0,1,1,8-8A8.009,8.009,0,0,1,24,32Zm0-12a4,4,0,1,0,4,4A4,4,0,0,0,24,20Z"/></g></g></svg>