<?xml version="1.0" encoding="UTF-8" standalone="no"?><svg xmlns="http://www.w3.org/2000/svg" xmlns:xlink="http://www.w3.org/1999/xlink" fill="#000000" height="575.1" preserveAspectRatio="xMidYMid meet" version="1" viewBox="132.2 9.0 575.1 575.1" width="575.1" zoomAndPan="magnify"><g id="change1_1"><path d="M707.3,496.7c0,48.2-39.2,87.4-87.4,87.4H219.6c-48.2,0-87.4-39.2-87.4-87.4V96.4 c0-48.2,39.2-87.4,87.4-87.4h400.3c48.2,0,87.4,39.2,87.4,87.4L707.3,496.7L707.3,496.7z" fill="#640e0e"/></g><g><g id="change2_1"><path d="M623.6,301.1c0,31.8,0,65.5-7.1,96.3c-5,21.7-22.7,37.6-44.1,40c-50.5,5.6-101.7,5.7-152.6,5.6 c-51,0-102,0-152.6-5.6c-21.3-2.4-39.1-18.3-44.1-40c-7.1-30.8-7.1-64.5-7.1-96.3s0.1-65.5,7.1-96.3c5-21.7,22.7-37.6,44.1-40 c50.6-5.7,101.7-5.7,152.6-5.7s102,0,152.6,5.7c21.3,2.4,39.1,18.3,44.1,40C623.6,235.6,623.6,269.3,623.6,301.1z" fill="#ffffff"/></g><g id="change1_2"><path d="M376.9 225.3L376.9 377.6 495.2 301.4z" fill="#640e0e"/></g></g></svg>